<mxfile host="app.diagrams.net" modified="2024-06-28T10:01:58.695Z" agent="Mozilla/5.0 (Windows NT 10.0; Win64; x64) AppleWebKit/537.36 (KHTML, like Gecko) Chrome/126.0.0.0 Safari/537.36" etag="-sM3XevQ7ftg33vBrum_" version="24.6.4" type="github">
  <diagram name="Page-1" id="YByiRGs1S5qQSoG0bhu4">
    <mxGraphModel dx="2182" dy="1260" grid="1" gridSize="10" guides="1" tooltips="1" connect="1" arrows="1" fold="1" page="1" pageScale="1" pageWidth="850" pageHeight="1100" math="0" shadow="0">
      <root>
        <mxCell id="0" />
        <mxCell id="1" parent="0" />
        <mxCell id="QZMvqvCmCbf6V6JpCvCZ-3" style="edgeStyle=orthogonalEdgeStyle;rounded=0;orthogonalLoop=1;jettySize=auto;html=1;exitX=0.5;exitY=1;exitDx=0;exitDy=0;entryX=0.5;entryY=0;entryDx=0;entryDy=0;" edge="1" parent="1" source="QZMvqvCmCbf6V6JpCvCZ-1" target="QZMvqvCmCbf6V6JpCvCZ-18">
          <mxGeometry relative="1" as="geometry">
            <mxPoint x="425.0344827586207" y="100" as="targetPoint" />
          </mxGeometry>
        </mxCell>
        <mxCell id="QZMvqvCmCbf6V6JpCvCZ-1" value="Receive Post Request" style="ellipse;whiteSpace=wrap;html=1;" vertex="1" parent="1">
          <mxGeometry x="380" y="10" width="90" height="60" as="geometry" />
        </mxCell>
        <mxCell id="QZMvqvCmCbf6V6JpCvCZ-11" style="edgeStyle=orthogonalEdgeStyle;rounded=0;orthogonalLoop=1;jettySize=auto;html=1;entryX=0.5;entryY=0;entryDx=0;entryDy=0;" edge="1" parent="1" target="QZMvqvCmCbf6V6JpCvCZ-10">
          <mxGeometry relative="1" as="geometry">
            <mxPoint x="425" y="200" as="targetPoint" />
            <mxPoint x="425.0344827586207" y="160" as="sourcePoint" />
          </mxGeometry>
        </mxCell>
        <mxCell id="QZMvqvCmCbf6V6JpCvCZ-7" style="edgeStyle=orthogonalEdgeStyle;rounded=0;orthogonalLoop=1;jettySize=auto;html=1;" edge="1" parent="1" source="QZMvqvCmCbf6V6JpCvCZ-4" target="QZMvqvCmCbf6V6JpCvCZ-18">
          <mxGeometry relative="1" as="geometry">
            <mxPoint x="485" y="130" as="targetPoint" />
            <Array as="points">
              <mxPoint x="510" y="130" />
              <mxPoint x="510" y="130" />
            </Array>
          </mxGeometry>
        </mxCell>
        <mxCell id="QZMvqvCmCbf6V6JpCvCZ-4" value="results.json" style="shape=note;whiteSpace=wrap;html=1;backgroundOutline=1;darkOpacity=0.05;" vertex="1" parent="1">
          <mxGeometry x="630" y="90" width="70" height="80" as="geometry" />
        </mxCell>
        <mxCell id="QZMvqvCmCbf6V6JpCvCZ-6" value="project version branch pr author" style="shape=callout;whiteSpace=wrap;html=1;perimeter=calloutPerimeter;rotation=0;" vertex="1" parent="1">
          <mxGeometry x="530" y="10" width="120" height="80" as="geometry" />
        </mxCell>
        <mxCell id="QZMvqvCmCbf6V6JpCvCZ-8" style="edgeStyle=orthogonalEdgeStyle;rounded=0;orthogonalLoop=1;jettySize=auto;html=1;entryX=1;entryY=0.75;entryDx=0;entryDy=0;" edge="1" parent="1" source="QZMvqvCmCbf6V6JpCvCZ-6" target="QZMvqvCmCbf6V6JpCvCZ-18">
          <mxGeometry relative="1" as="geometry">
            <mxPoint x="484.0400000000002" y="153.64" as="targetPoint" />
            <Array as="points">
              <mxPoint x="590" y="152" />
              <mxPoint x="510" y="152" />
            </Array>
          </mxGeometry>
        </mxCell>
        <mxCell id="QZMvqvCmCbf6V6JpCvCZ-13" style="edgeStyle=orthogonalEdgeStyle;rounded=0;orthogonalLoop=1;jettySize=auto;html=1;exitX=0.5;exitY=1;exitDx=0;exitDy=0;" edge="1" parent="1" source="QZMvqvCmCbf6V6JpCvCZ-20" target="QZMvqvCmCbf6V6JpCvCZ-12">
          <mxGeometry relative="1" as="geometry">
            <mxPoint x="425" y="250" as="sourcePoint" />
          </mxGeometry>
        </mxCell>
        <mxCell id="QZMvqvCmCbf6V6JpCvCZ-17" style="edgeStyle=orthogonalEdgeStyle;rounded=0;orthogonalLoop=1;jettySize=auto;html=1;" edge="1" parent="1" source="QZMvqvCmCbf6V6JpCvCZ-12" target="QZMvqvCmCbf6V6JpCvCZ-28">
          <mxGeometry relative="1" as="geometry">
            <mxPoint x="320" y="345" as="targetPoint" />
          </mxGeometry>
        </mxCell>
        <mxCell id="QZMvqvCmCbf6V6JpCvCZ-22" value="yes" style="edgeLabel;html=1;align=center;verticalAlign=middle;resizable=0;points=[];" vertex="1" connectable="0" parent="QZMvqvCmCbf6V6JpCvCZ-17">
          <mxGeometry x="-0.2733" y="3" relative="1" as="geometry">
            <mxPoint as="offset" />
          </mxGeometry>
        </mxCell>
        <mxCell id="QZMvqvCmCbf6V6JpCvCZ-23" style="edgeStyle=orthogonalEdgeStyle;rounded=0;orthogonalLoop=1;jettySize=auto;html=1;" edge="1" parent="1" source="QZMvqvCmCbf6V6JpCvCZ-12" target="QZMvqvCmCbf6V6JpCvCZ-27">
          <mxGeometry relative="1" as="geometry">
            <mxPoint x="520" y="345" as="targetPoint" />
          </mxGeometry>
        </mxCell>
        <mxCell id="QZMvqvCmCbf6V6JpCvCZ-24" value="no" style="edgeLabel;html=1;align=center;verticalAlign=middle;resizable=0;points=[];" vertex="1" connectable="0" parent="QZMvqvCmCbf6V6JpCvCZ-23">
          <mxGeometry x="-0.1858" relative="1" as="geometry">
            <mxPoint as="offset" />
          </mxGeometry>
        </mxCell>
        <mxCell id="QZMvqvCmCbf6V6JpCvCZ-25" style="edgeStyle=orthogonalEdgeStyle;rounded=0;orthogonalLoop=1;jettySize=auto;html=1;" edge="1" parent="1" source="QZMvqvCmCbf6V6JpCvCZ-12" target="QZMvqvCmCbf6V6JpCvCZ-29">
          <mxGeometry relative="1" as="geometry">
            <mxPoint x="425" y="480" as="targetPoint" />
          </mxGeometry>
        </mxCell>
        <mxCell id="QZMvqvCmCbf6V6JpCvCZ-26" value="not in DB but in input results" style="edgeLabel;html=1;align=center;verticalAlign=middle;resizable=0;points=[];" vertex="1" connectable="0" parent="QZMvqvCmCbf6V6JpCvCZ-25">
          <mxGeometry x="-0.0613" relative="1" as="geometry">
            <mxPoint as="offset" />
          </mxGeometry>
        </mxCell>
        <mxCell id="QZMvqvCmCbf6V6JpCvCZ-12" value="similarityIds are found in DB" style="rhombus;whiteSpace=wrap;html=1;" vertex="1" parent="1">
          <mxGeometry x="370" y="290" width="110" height="110" as="geometry" />
        </mxCell>
        <mxCell id="QZMvqvCmCbf6V6JpCvCZ-21" style="edgeStyle=orthogonalEdgeStyle;rounded=0;orthogonalLoop=1;jettySize=auto;html=1;" edge="1" parent="1" source="QZMvqvCmCbf6V6JpCvCZ-18" target="QZMvqvCmCbf6V6JpCvCZ-20">
          <mxGeometry relative="1" as="geometry" />
        </mxCell>
        <mxCell id="QZMvqvCmCbf6V6JpCvCZ-18" value="Get params from request" style="shape=parallelogram;perimeter=parallelogramPerimeter;whiteSpace=wrap;html=1;fixedSize=1;" vertex="1" parent="1">
          <mxGeometry x="365" y="110" width="120" height="60" as="geometry" />
        </mxCell>
        <mxCell id="QZMvqvCmCbf6V6JpCvCZ-20" value="Find all results for version branch project" style="rounded=0;whiteSpace=wrap;html=1;" vertex="1" parent="1">
          <mxGeometry x="365" y="200" width="120" height="60" as="geometry" />
        </mxCell>
        <mxCell id="QZMvqvCmCbf6V6JpCvCZ-32" style="edgeStyle=orthogonalEdgeStyle;rounded=0;orthogonalLoop=1;jettySize=auto;html=1;" edge="1" parent="1" source="QZMvqvCmCbf6V6JpCvCZ-27" target="QZMvqvCmCbf6V6JpCvCZ-31">
          <mxGeometry relative="1" as="geometry" />
        </mxCell>
        <mxCell id="QZMvqvCmCbf6V6JpCvCZ-27" value="new results" style="rounded=0;whiteSpace=wrap;html=1;" vertex="1" parent="1">
          <mxGeometry x="550" y="315" width="120" height="60" as="geometry" />
        </mxCell>
        <mxCell id="QZMvqvCmCbf6V6JpCvCZ-37" style="edgeStyle=orthogonalEdgeStyle;rounded=0;orthogonalLoop=1;jettySize=auto;html=1;" edge="1" parent="1" source="QZMvqvCmCbf6V6JpCvCZ-28" target="QZMvqvCmCbf6V6JpCvCZ-36">
          <mxGeometry relative="1" as="geometry" />
        </mxCell>
        <mxCell id="QZMvqvCmCbf6V6JpCvCZ-28" value="existing results" style="rounded=0;whiteSpace=wrap;html=1;" vertex="1" parent="1">
          <mxGeometry x="170" y="315" width="120" height="60" as="geometry" />
        </mxCell>
        <mxCell id="QZMvqvCmCbf6V6JpCvCZ-38" style="edgeStyle=orthogonalEdgeStyle;rounded=0;orthogonalLoop=1;jettySize=auto;html=1;" edge="1" parent="1" source="QZMvqvCmCbf6V6JpCvCZ-29" target="QZMvqvCmCbf6V6JpCvCZ-36">
          <mxGeometry relative="1" as="geometry" />
        </mxCell>
        <mxCell id="QZMvqvCmCbf6V6JpCvCZ-29" value="missing results" style="rounded=0;whiteSpace=wrap;html=1;" vertex="1" parent="1">
          <mxGeometry x="365" y="500" width="120" height="60" as="geometry" />
        </mxCell>
        <mxCell id="QZMvqvCmCbf6V6JpCvCZ-34" style="edgeStyle=orthogonalEdgeStyle;rounded=0;orthogonalLoop=1;jettySize=auto;html=1;" edge="1" parent="1" source="QZMvqvCmCbf6V6JpCvCZ-31" target="QZMvqvCmCbf6V6JpCvCZ-33">
          <mxGeometry relative="1" as="geometry" />
        </mxCell>
        <mxCell id="QZMvqvCmCbf6V6JpCvCZ-31" value="Bulk insert new results" style="rounded=0;whiteSpace=wrap;html=1;" vertex="1" parent="1">
          <mxGeometry x="550" y="400" width="120" height="60" as="geometry" />
        </mxCell>
        <mxCell id="QZMvqvCmCbf6V6JpCvCZ-53" style="edgeStyle=orthogonalEdgeStyle;rounded=0;orthogonalLoop=1;jettySize=auto;html=1;entryX=1;entryY=0.5;entryDx=0;entryDy=0;" edge="1" parent="1" source="QZMvqvCmCbf6V6JpCvCZ-33" target="QZMvqvCmCbf6V6JpCvCZ-51">
          <mxGeometry relative="1" as="geometry">
            <Array as="points">
              <mxPoint x="610" y="860" />
            </Array>
          </mxGeometry>
        </mxCell>
        <mxCell id="QZMvqvCmCbf6V6JpCvCZ-33" value="Bulk insert new status" style="rounded=0;whiteSpace=wrap;html=1;" vertex="1" parent="1">
          <mxGeometry x="550" y="490" width="120" height="60" as="geometry" />
        </mxCell>
        <mxCell id="QZMvqvCmCbf6V6JpCvCZ-40" style="edgeStyle=orthogonalEdgeStyle;rounded=0;orthogonalLoop=1;jettySize=auto;html=1;" edge="1" parent="1" source="QZMvqvCmCbf6V6JpCvCZ-36" target="QZMvqvCmCbf6V6JpCvCZ-39">
          <mxGeometry relative="1" as="geometry" />
        </mxCell>
        <mxCell id="QZMvqvCmCbf6V6JpCvCZ-36" value="get latest status for results" style="rounded=0;whiteSpace=wrap;html=1;" vertex="1" parent="1">
          <mxGeometry x="170" y="500" width="120" height="60" as="geometry" />
        </mxCell>
        <mxCell id="QZMvqvCmCbf6V6JpCvCZ-44" style="edgeStyle=orthogonalEdgeStyle;rounded=0;orthogonalLoop=1;jettySize=auto;html=1;" edge="1" parent="1" source="QZMvqvCmCbf6V6JpCvCZ-39" target="QZMvqvCmCbf6V6JpCvCZ-47">
          <mxGeometry relative="1" as="geometry">
            <mxPoint x="350" y="630" as="targetPoint" />
          </mxGeometry>
        </mxCell>
        <mxCell id="QZMvqvCmCbf6V6JpCvCZ-46" value="yes" style="edgeLabel;html=1;align=center;verticalAlign=middle;resizable=0;points=[];" vertex="1" connectable="0" parent="QZMvqvCmCbf6V6JpCvCZ-44">
          <mxGeometry x="-0.2043" y="-1" relative="1" as="geometry">
            <mxPoint as="offset" />
          </mxGeometry>
        </mxCell>
        <mxCell id="QZMvqvCmCbf6V6JpCvCZ-39" value="status has changed?" style="rhombus;whiteSpace=wrap;html=1;" vertex="1" parent="1">
          <mxGeometry x="190" y="590" width="80" height="80" as="geometry" />
        </mxCell>
        <mxCell id="QZMvqvCmCbf6V6JpCvCZ-49" style="edgeStyle=orthogonalEdgeStyle;rounded=0;orthogonalLoop=1;jettySize=auto;html=1;" edge="1" parent="1" source="QZMvqvCmCbf6V6JpCvCZ-47" target="QZMvqvCmCbf6V6JpCvCZ-48">
          <mxGeometry relative="1" as="geometry" />
        </mxCell>
        <mxCell id="QZMvqvCmCbf6V6JpCvCZ-47" value="Bulk update status" style="rounded=0;whiteSpace=wrap;html=1;" vertex="1" parent="1">
          <mxGeometry x="365" y="600" width="120" height="60" as="geometry" />
        </mxCell>
        <mxCell id="QZMvqvCmCbf6V6JpCvCZ-52" style="edgeStyle=orthogonalEdgeStyle;rounded=0;orthogonalLoop=1;jettySize=auto;html=1;" edge="1" parent="1" source="QZMvqvCmCbf6V6JpCvCZ-48" target="QZMvqvCmCbf6V6JpCvCZ-51">
          <mxGeometry relative="1" as="geometry" />
        </mxCell>
        <mxCell id="QZMvqvCmCbf6V6JpCvCZ-48" value="Bulk insert changed status" style="rounded=0;whiteSpace=wrap;html=1;" vertex="1" parent="1">
          <mxGeometry x="365" y="700" width="120" height="60" as="geometry" />
        </mxCell>
        <mxCell id="QZMvqvCmCbf6V6JpCvCZ-55" value="" style="edgeStyle=orthogonalEdgeStyle;rounded=0;orthogonalLoop=1;jettySize=auto;html=1;" edge="1" parent="1" source="QZMvqvCmCbf6V6JpCvCZ-51" target="QZMvqvCmCbf6V6JpCvCZ-54">
          <mxGeometry relative="1" as="geometry" />
        </mxCell>
        <mxCell id="QZMvqvCmCbf6V6JpCvCZ-51" value="Return&lt;div&gt;new results&lt;/div&gt;&lt;div&gt;changed status&lt;/div&gt;" style="rounded=1;whiteSpace=wrap;html=1;" vertex="1" parent="1">
          <mxGeometry x="365" y="830" width="120" height="60" as="geometry" />
        </mxCell>
        <mxCell id="QZMvqvCmCbf6V6JpCvCZ-54" value="" style="ellipse;whiteSpace=wrap;html=1;rounded=1;fillColor=#ffffff;strokeWidth=5;strokeColor=#000000;" vertex="1" parent="1">
          <mxGeometry x="405" y="920" width="40" height="40" as="geometry" />
        </mxCell>
      </root>
    </mxGraphModel>
  </diagram>
</mxfile>
